<svg xmlns="http://www.w3.org/2000/svg" xmlns:xlink="http://www.w3.org/1999/xlink" width="2000" zoomAndPan="magnify" viewBox="0 0 1500 1124.99995" height="1500" preserveAspectRatio="xMidYMid meet" version="1.0"><defs><clipPath id="60ea81e654"><path d="M 76.648438 190.230469 L 1442.398438 190.230469 L 1442.398438 872.730469 L 76.648438 872.730469 Z M 76.648438 190.230469 " clip-rule="nonzero"/></clipPath></defs><g clip-path="url(#60ea81e654)"><path fill="#000000" d="M 585.019531 694.15625 C 579.957031 694.15625 574.601562 693.933594 568.992188 693.421875 C 581.429688 697.328125 594.480469 699.378906 607.6875 699.378906 C 621.539062 699.378906 635.257812 697.167969 648.4375 692.8125 C 650.902344 691.980469 653.566406 693.292969 654.460938 695.726562 C 674.402344 750.390625 726.917969 787.113281 785.171875 787.113281 C 801.136719 787.113281 816.847656 784.421875 831.851562 779.070312 C 832.363281 778.878906 832.90625 778.78125 833.453125 778.78125 C 834.929688 778.78125 836.339844 779.453125 837.269531 780.671875 C 881.574219 838.828125 948.835938 872.152344 1021.804688 872.152344 C 1105.320312 872.152344 1182.746094 826.910156 1223.847656 754.042969 C 1225 752.027344 1227.40625 751.097656 1229.617188 751.867188 C 1246.578125 757.761719 1264.304688 760.773438 1282.289062 760.773438 C 1370.648438 760.773438 1442.558594 688.933594 1442.558594 600.59375 C 1442.558594 521.738281 1383.761719 453.617188 1305.824219 442.144531 C 1305.757812 442.144531 1305.695312 442.113281 1305.628906 442.082031 C 1305.375 442.015625 1305.117188 441.953125 1304.859375 441.855469 C 1304.765625 441.824219 1304.636719 441.792969 1304.539062 441.730469 C 1304.316406 441.632812 1304.089844 441.503906 1303.867188 441.34375 C 1303.769531 441.28125 1303.675781 441.214844 1303.578125 441.152344 C 1303.546875 441.121094 1303.515625 441.121094 1303.484375 441.085938 C 1301.558594 439.519531 1255.328125 403.46875 1194.320312 440.0625 C 1138.984375 473.226562 1154.050781 527.792969 1154.726562 530.101562 C 1155.367188 532.28125 1154.371094 534.621094 1152.351562 535.707031 C 1151.359375 536.253906 1140.972656 542.054688 1130.96875 555.09375 C 1130.648438 555.800781 1130.199219 556.441406 1129.589844 556.953125 C 1116.0625 575.664062 1104.070312 608.027344 1118.304688 659.261719 C 1131.738281 707.648438 1188.386719 727.640625 1235.355469 725.910156 C 1281.296875 724.148438 1339.199219 700.375 1351.21875 639.171875 C 1364.203125 573.167969 1334.132812 543.785156 1315.054688 532.183594 C 1285.527344 514.207031 1245.96875 515.488281 1221.023438 535.261719 C 1189.574219 560.1875 1190.824219 588.769531 1202.496094 607.226562 C 1213.652344 624.851562 1238.046875 637.410156 1261.355469 625.972656 C 1279.46875 617.0625 1283.285156 605.914062 1283.285156 598.128906 C 1283.285156 587.679688 1276.457031 578.804688 1269.722656 575.472656 C 1266.519531 573.871094 1261.773438 572.683594 1257.378906 576.019531 C 1255.265625 577.621094 1252.25 577.234375 1250.648438 575.121094 C 1249.046875 573.003906 1249.429688 569.992188 1251.546875 568.390625 C 1257.925781 563.519531 1266.101562 562.976562 1273.988281 566.855469 C 1285.144531 572.363281 1292.933594 585.246094 1292.902344 598.128906 C 1292.902344 606.746094 1289.3125 622.925781 1265.589844 634.589844 C 1237.277344 648.53125 1207.753906 633.535156 1194.351562 612.355469 C 1181.078125 591.367188 1178.546875 556.632812 1215.03125 527.699219 C 1243.019531 505.523438 1287.195312 503.953125 1320.058594 523.949219 C 1356.15625 545.929688 1370.96875 588.609375 1360.675781 641 C 1347.566406 707.710938 1285.175781 733.601562 1235.742188 735.492188 C 1233.71875 735.554688 1231.667969 735.621094 1229.617188 735.621094 C 1198.453125 735.621094 1164.214844 726.617188 1139.65625 707.039062 C 1132.636719 729.050781 1104.808594 792.207031 1011.800781 817.328125 C 993.078125 822.390625 974.964844 824.890625 957.910156 824.890625 C 926.203125 824.890625 898.054688 816.238281 875.867188 799.257812 C 850.957031 780.191406 835.503906 751.160156 835.503906 723.507812 C 835.503906 702.039062 842.78125 684.257812 856.601562 672.144531 C 861.953125 667.433594 867.886719 663.878906 874.042969 661.28125 C 874.296875 657.726562 874.523438 651.15625 873.816406 642.792969 C 873.558594 642.058594 873.496094 641.289062 873.59375 640.550781 C 872.917969 633.855469 871.605469 626.226562 869.296875 618.21875 C 869.265625 618.183594 869.265625 618.152344 869.230469 618.121094 C 868.75 617.351562 868.558594 616.488281 868.558594 615.621094 C 859.742188 587.679688 838.039062 556.183594 785.714844 546.347656 C 731.632812 536.15625 700.53125 562.558594 693.703125 593.257812 C 689.183594 613.570312 695.980469 638.402344 721.5625 644.941406 C 739.550781 649.554688 752.984375 646.253906 759.972656 636 C 760.101562 635.808594 760.195312 635.648438 760.355469 635.488281 C 761.925781 633.054688 763.144531 630.234375 763.980469 627.027344 C 767.667969 612.996094 762.054688 596.75 752.664062 594.25 C 750.097656 593.578125 748.558594 590.917969 749.265625 588.355469 C 749.96875 585.789062 752.566406 584.285156 755.164062 584.957031 C 771.097656 589.21875 777.863281 611.96875 773.308594 629.464844 C 772.476562 632.605469 771.257812 635.710938 769.621094 638.597656 C 773.597656 646.125 783.953125 668.941406 775.199219 688.871094 C 769.011719 702.90625 754.875 712.199219 733.171875 716.460938 C 732.847656 716.523438 732.5625 716.554688 732.242188 716.554688 C 729.996094 716.554688 727.976562 714.953125 727.527344 712.679688 C 727.015625 710.082031 728.714844 707.550781 731.3125 707.039062 C 749.746094 703.417969 761.542969 695.984375 766.417969 684.992188 C 772.347656 671.535156 766.898438 655.515625 763.050781 647.023438 C 754.203125 655.257812 739.933594 659.519531 719.257812 654.234375 C 688.894531 646.480469 678.765625 616.617188 684.40625 591.140625 C 691.972656 557.046875 727.496094 525.519531 787.609375 536.863281 C 841.660156 547.050781 865.609375 579.222656 876.0625 608.796875 C 893.597656 600.273438 953.164062 577.492188 1000.390625 632.089844 C 1002.921875 625.105469 1005.453125 613.699219 1000.355469 603.476562 C 994.007812 590.757812 977.5625 582.746094 951.496094 579.636719 C 948.867188 579.316406 946.976562 576.945312 947.296875 574.289062 C 947.617188 571.660156 950.054688 569.738281 952.652344 570.089844 C 982.179688 573.582031 1001.125 583.417969 1009.011719 599.25 C 1019.238281 619.820312 1006.578125 642.183594 1005.808594 643.5 C 1005.808594 643.5 1005.773438 643.53125 1005.773438 643.5625 C 1005.742188 643.59375 1005.710938 643.628906 1005.710938 643.660156 C 1005.550781 643.949219 1005.324219 644.203125 1005.101562 644.460938 C 1005.003906 644.554688 1004.910156 644.621094 1004.8125 644.714844 C 1004.71875 644.78125 1004.652344 644.875 1004.558594 644.972656 C 1004.492188 645.035156 1004.398438 645.035156 1004.332031 645.101562 C 1004.042969 645.292969 1003.753906 645.453125 1003.433594 645.582031 C 1003.304688 645.644531 1003.179688 645.710938 1003.019531 645.742188 C 1002.570312 645.871094 1002.121094 645.964844 1001.671875 645.964844 C 1001.671875 645.964844 1001.640625 645.964844 1001.640625 645.964844 C 1001.640625 645.964844 1001.605469 645.964844 1001.605469 645.964844 C 1001.222656 645.964844 1000.871094 645.902344 1000.484375 645.804688 C 1000.355469 645.773438 1000.261719 645.710938 1000.132812 645.679688 C 999.875 645.582031 999.621094 645.484375 999.363281 645.355469 C 999.300781 645.324219 999.265625 645.324219 999.203125 645.292969 C 999.074219 645.230469 998.976562 645.132812 998.851562 645.035156 C 998.753906 644.972656 998.625 644.910156 998.53125 644.8125 C 998.304688 644.621094 998.082031 644.394531 997.921875 644.171875 C 997.886719 644.140625 997.855469 644.109375 997.824219 644.074219 C 952.234375 584.667969 892.890625 610.6875 878.976562 618.023438 C 880.550781 623.824219 881.640625 629.398438 882.410156 634.558594 C 950.28125 610.6875 983.941406 665.609375 984.296875 666.183594 C 985.640625 668.460938 984.902344 671.40625 982.628906 672.785156 C 981.859375 673.234375 981.023438 673.457031 980.160156 673.457031 C 978.523438 673.457031 976.921875 672.625 976.023438 671.121094 C 974.773438 669.035156 945.214844 621.359375 883.5 644.429688 C 883.914062 649.8125 883.980469 654.425781 883.914062 657.917969 C 894.65625 655.035156 905.332031 654.617188 913.988281 655.738281 C 939.1875 658.976562 964.417969 680.476562 960.28125 720.015625 C 958.96875 732.449219 952.425781 743.695312 942.359375 750.9375 C 932.742188 757.824219 921.167969 760.230469 909.820312 757.664062 C 894.175781 754.140625 882.34375 742.09375 874.714844 721.9375 C 873.785156 719.472656 875.035156 716.683594 877.503906 715.753906 C 879.972656 714.824219 882.761719 716.074219 883.691406 718.542969 C 890.101562 735.492188 899.59375 745.519531 911.902344 748.308594 C 920.527344 750.261719 929.34375 748.4375 936.71875 743.148438 C 944.574219 737.511719 949.671875 728.730469 950.695312 719.054688 C 954.191406 685.730469 934.152344 668.042969 912.738281 665.289062 C 903.566406 664.101562 891.800781 664.871094 880.582031 669.070312 C 880.515625 669.101562 880.421875 669.132812 880.355469 669.164062 C 874.265625 671.472656 868.367188 674.773438 863.140625 679.386719 C 851.3125 689.800781 845.316406 704.636719 845.316406 723.539062 C 845.316406 748.277344 859.324219 774.390625 881.929688 791.664062 C 913.636719 815.917969 958.9375 821.75 1009.527344 808.066406 C 1105.960938 782.015625 1128.402344 713.640625 1131.960938 700.019531 C 1121.542969 689.703125 1113.527344 677.046875 1109.296875 661.859375 C 1094.386719 608.21875 1107.117188 573.167969 1121.832031 552.304688 C 1118.175781 522.667969 1095.382812 494.4375 1060.46875 476.558594 C 1024.015625 457.878906 966.855469 448.363281 915.75 477.679688 C 913.441406 478.992188 910.523438 478.226562 909.179688 475.917969 C 907.863281 473.609375 908.664062 470.664062 910.941406 469.347656 C 956.5 443.203125 1015.457031 442.691406 1064.828125 468.003906 C 1099.230469 485.625 1122.792969 512.925781 1129.75 542.46875 C 1135.84375 535.867188 1141.484375 531.542969 1144.851562 529.269531 C 1142.09375 515.265625 1136.289062 463.871094 1189.574219 431.890625 C 1245.230469 398.503906 1291.042969 421.605469 1305.183594 430.546875 C 1319.03125 406.386719 1326.339844 378.988281 1326.339844 351.015625 C 1326.117188 262.707031 1254.238281 190.871094 1165.847656 190.871094 C 1082.652344 190.871094 1014.109375 253.191406 1006.320312 335.859375 C 1006.253906 337.015625 1003.59375 385.238281 1030.460938 415.070312 C 1043.796875 429.871094 1062.390625 437.820312 1085.730469 438.714844 C 1137.445312 440.703125 1168.734375 412.472656 1180.757812 385.398438 C 1192.074219 359.957031 1188.132812 332.945312 1170.496094 314.90625 C 1151.453125 295.421875 1126.898438 289.144531 1104.808594 298.148438 C 1087.015625 305.390625 1075.089844 320.867188 1075.089844 336.628906 C 1075.089844 354.476562 1088.296875 366.171875 1101.378906 369.824219 C 1114.488281 373.480469 1132.765625 370.339844 1144.753906 350.503906 C 1146.132812 348.230469 1149.082031 347.523438 1151.359375 348.871094 C 1153.632812 350.246094 1154.371094 353.195312 1152.992188 355.472656 C 1138.214844 379.886719 1115.292969 383.667969 1098.8125 379.054688 C 1078.902344 373.511719 1065.503906 356.433594 1065.503906 336.597656 C 1065.503906 316.957031 1079.863281 297.890625 1101.21875 289.207031 C 1127.058594 278.699219 1155.558594 285.777344 1177.421875 308.144531 C 1197.84375 329.066406 1202.527344 360.148438 1189.574219 389.242188 C 1176.71875 418.210938 1144.144531 448.394531 1090.894531 448.394531 C 1089.066406 448.394531 1087.238281 448.363281 1085.378906 448.296875 C 1059.347656 447.304688 1038.445312 438.269531 1023.3125 421.414062 C 1016.195312 413.5 1010.9375 404.527344 1007.089844 395.460938 C 1000.613281 390.75 964.03125 365.5625 920.914062 365.5625 C 897.285156 365.5625 875.546875 373.09375 856.246094 387.929688 C 854.132812 389.53125 851.117188 389.148438 849.515625 387.066406 C 847.878906 384.949219 848.296875 381.9375 850.378906 380.335938 C 871.410156 364.1875 895.136719 355.984375 920.914062 355.984375 C 955.761719 355.984375 985.898438 370.785156 1001.894531 380.496094 C 996.765625 361.945312 996.476562 345.121094 996.636719 338.296875 C 974.292969 325.992188 949.09375 319.457031 923.542969 319.457031 C 849.644531 319.457031 786.773438 372.195312 774.046875 444.902344 C 773.789062 446.3125 772.957031 447.527344 771.707031 448.234375 C 770.457031 448.9375 768.980469 449.066406 767.632812 448.554688 C 730.574219 434.742188 682.996094 423.113281 634.105469 427.4375 C 629.648438 429.039062 536.964844 463.582031 518.433594 565.410156 C 506.570312 630.617188 474.925781 679.097656 431.582031 698.386719 C 417.285156 704.761719 401.894531 707.9375 385.609375 707.9375 C 366.148438 707.9375 345.4375 703.386719 323.863281 694.382812 C 348.128906 713.894531 379.902344 730.8125 432.222656 720.785156 C 468.453125 713.832031 502.113281 699.734375 532.316406 678.808594 C 532.347656 678.777344 532.378906 678.777344 532.410156 678.777344 C 532.761719 678.554688 533.148438 678.359375 533.53125 678.234375 C 533.597656 678.199219 533.691406 678.199219 533.757812 678.167969 C 534.109375 678.074219 534.460938 678.007812 534.816406 678.007812 C 534.910156 678.007812 534.976562 678.007812 535.070312 678.007812 C 535.457031 678.007812 535.839844 678.039062 536.226562 678.136719 C 615.027344 697.617188 652.1875 665.511719 652.570312 665.191406 C 654.558594 663.429688 657.574219 663.589844 659.367188 665.542969 C 661.132812 667.5 661.003906 670.542969 659.015625 672.304688 C 657.667969 673.488281 634.136719 694.15625 585.019531 694.15625 Z M 1231.378906 562.207031 C 1228.976562 565.285156 1226.988281 568.519531 1225.546875 571.980469 C 1224.132812 575.441406 1222.851562 578.996094 1222.308594 582.90625 C 1222.082031 583.867188 1221.953125 584.828125 1221.859375 585.824219 L 1221.472656 588.835938 C 1221.25 590.886719 1221.28125 592.9375 1220.894531 595.148438 C 1219.871094 593.257812 1219.003906 591.238281 1218.332031 589.15625 C 1217.914062 587.039062 1217.210938 584.863281 1217.273438 582.652344 C 1216.890625 578.195312 1217.851562 573.613281 1219.644531 569.417969 C 1221.441406 565.1875 1224.359375 561.535156 1227.820312 558.714844 C 1231.285156 555.894531 1235.355469 553.875 1239.714844 553.300781 C 1236.542969 556.246094 1233.785156 559.132812 1231.378906 562.207031 Z M 1250.777344 604.855469 L 1254.75 606.425781 C 1256.164062 606.84375 1257.539062 607.484375 1258.984375 607.996094 C 1260.425781 608.507812 1261.933594 609.019531 1263.441406 609.855469 C 1261.902344 610.464844 1260.296875 610.785156 1258.664062 611.136719 C 1257.058594 611.359375 1255.394531 611.390625 1253.757812 611.390625 C 1252.121094 611.296875 1250.457031 611.007812 1248.789062 610.65625 C 1247.152344 610.109375 1245.519531 609.660156 1243.980469 608.699219 C 1240.902344 607.035156 1238.082031 604.34375 1236.703125 600.945312 C 1235.324219 597.582031 1235.226562 593.800781 1236.894531 590.820312 C 1238.976562 597.164062 1242.441406 600.625 1247.089844 603.09375 C 1248.242188 603.796875 1249.558594 604.214844 1250.777344 604.855469 Z M 1195.441406 696.207031 C 1189.285156 693.996094 1183.578125 690.730469 1177.96875 687.332031 C 1172.484375 683.710938 1167.386719 679.449219 1162.738281 674.738281 C 1153.601562 665.160156 1147 653.207031 1143.601562 640.550781 C 1140.203125 627.925781 1139.558594 614.566406 1142.347656 602.035156 C 1142.222656 614.820312 1144.273438 627.347656 1148.375 639.042969 C 1152.542969 650.707031 1158.859375 661.472656 1167.421875 670.285156 C 1175.851562 679.195312 1186.238281 686.179688 1197.460938 691.5625 C 1208.714844 697.007812 1220.769531 700.886719 1233.175781 704.1875 C 1220.351562 703.578125 1207.527344 700.984375 1195.441406 696.207031 Z M 1224.292969 659.710938 C 1229.488281 661.347656 1234.746094 662.402344 1240.101562 663.238281 C 1245.453125 663.972656 1250.871094 664.359375 1256.386719 664.550781 C 1259.144531 664.648438 1261.902344 664.550781 1264.722656 664.679688 C 1267.542969 664.679688 1270.332031 664.550781 1273.28125 664.742188 C 1270.652344 665.929688 1267.929688 666.890625 1265.171875 667.785156 C 1262.382812 668.425781 1259.558594 669.195312 1256.675781 669.550781 C 1250.9375 670.316406 1245.003906 670.445312 1239.203125 669.582031 C 1233.398438 668.714844 1227.660156 667.019531 1222.402344 664.324219 C 1217.210938 661.632812 1212.273438 658.046875 1209.035156 653.175781 C 1214.035156 656.027344 1219.132812 658.046875 1224.292969 659.710938 Z M 1199.703125 669.613281 C 1203.359375 671.726562 1207.496094 672.945312 1211.4375 674.613281 C 1215.476562 676.023438 1219.613281 677.207031 1223.71875 678.519531 C 1227.917969 679.449219 1232.117188 680.730469 1236.382812 681.660156 C 1240.644531 682.558594 1244.972656 683.421875 1249.269531 684.578125 C 1244.84375 684.832031 1240.421875 684.800781 1235.933594 684.769531 C 1231.507812 684.542969 1227.050781 683.9375 1222.628906 683.390625 C 1220.414062 683.101562 1218.234375 682.492188 1216.054688 682.011719 C 1213.875 681.46875 1211.664062 681.050781 1209.515625 680.378906 C 1205.28125 678.777344 1200.921875 677.527344 1196.882812 675.347656 C 1192.746094 673.425781 1188.933594 670.863281 1185.148438 668.265625 L 1179.957031 663.75 C 1178.320312 662.113281 1176.847656 660.351562 1175.339844 658.621094 C 1174.023438 656.699219 1172.613281 654.90625 1171.492188 652.886719 C 1170.433594 650.835938 1169.3125 648.851562 1168.574219 646.671875 C 1167.003906 642.410156 1166.011719 637.890625 1166.332031 633.40625 C 1167.386719 637.699219 1169.152344 641.671875 1171.394531 645.324219 C 1173.480469 649.042969 1176.300781 652.246094 1179.089844 655.320312 C 1184.957031 661.3125 1192.042969 666.023438 1199.703125 669.613281 Z M 1230.386719 465.054688 C 1227.339844 465.183594 1224.421875 465.664062 1221.570312 466.367188 C 1215.894531 467.9375 1210.605469 470.695312 1205.667969 474.089844 C 1195.699219 480.851562 1187.203125 489.855469 1178.351562 499.148438 C 1180.53125 493.058594 1183.898438 487.484375 1187.875 482.359375 C 1191.851562 477.230469 1196.53125 472.554688 1202.046875 468.804688 C 1207.496094 465.023438 1213.90625 462.300781 1220.640625 461.464844 C 1224.007812 461.082031 1227.4375 461.273438 1230.675781 461.914062 C 1233.945312 462.683594 1236.992188 463.933594 1239.714844 465.695312 C 1236.507812 465.3125 1233.433594 464.925781 1230.386719 465.054688 Z M 1314.285156 462.75 C 1309.992188 460.953125 1305.566406 459.480469 1301.046875 458.550781 C 1296.589844 457.652344 1291.8125 456.949219 1287.546875 457.078125 C 1287.003906 457.078125 1286.523438 456.980469 1286.074219 456.722656 L 1286.011719 456.691406 C 1278.507812 452.6875 1270.683594 449.324219 1262.542969 447.273438 C 1258.503906 446.183594 1254.367188 445.445312 1250.199219 445.0625 C 1246.03125 444.675781 1241.863281 444.613281 1237.695312 444.964844 C 1229.359375 445.636719 1221.152344 447.878906 1213.394531 451.4375 C 1205.667969 455.027344 1198.359375 459.769531 1191.945312 465.695312 C 1197.074219 458.550781 1203.9375 452.621094 1211.632812 448.074219 C 1219.324219 443.523438 1228.046875 440.382812 1237.085938 439.292969 C 1246.09375 438.042969 1255.359375 438.8125 1264.144531 441.054688 C 1272.671875 443.296875 1280.847656 446.792969 1288.351562 451.246094 C 1293.289062 451.46875 1297.777344 452.238281 1302.296875 453.550781 C 1307.074219 454.929688 1311.691406 456.757812 1316.019531 459.160156 C 1324.707031 463.835938 1332.175781 470.566406 1337.660156 478.449219 C 1330.765625 471.785156 1322.878906 466.402344 1314.285156 462.75 Z M 1399.566406 645.355469 C 1397.996094 651.316406 1396.230469 657.246094 1394.40625 663.109375 C 1392.191406 668.875 1389.980469 674.613281 1387.511719 680.21875 C 1388.632812 674.164062 1390.011719 668.203125 1391.359375 662.273438 L 1394.660156 644.363281 C 1396.230469 632.378906 1397.964844 620.429688 1397.835938 608.414062 C 1398.027344 596.460938 1397.195312 584.445312 1394.691406 572.75 C 1393.28125 566.949219 1391.839844 561.117188 1389.5625 555.542969 C 1387.449219 549.902344 1384.820312 544.425781 1381.324219 539.394531 C 1385.910156 543.527344 1389.402344 548.8125 1392.382812 554.230469 C 1393.957031 556.921875 1395.078125 559.835938 1396.390625 562.6875 C 1397.609375 565.570312 1398.445312 568.582031 1399.5 571.53125 C 1403.125 583.515625 1404.3125 596.109375 1404.214844 608.507812 C 1404.246094 621.003906 1402.195312 633.308594 1399.566406 645.355469 Z M 1360.035156 493.507812 C 1367.472656 496.007812 1374.238281 500.367188 1380.394531 505.332031 C 1386.644531 510.265625 1391.871094 516.386719 1396.648438 522.761719 C 1399.019531 525.96875 1400.945312 529.492188 1403.027344 532.890625 C 1404.984375 536.382812 1406.457031 540.097656 1408.222656 543.6875 C 1408.640625 544.617188 1409.121094 545.480469 1409.441406 546.441406 L 1412.230469 554.996094 C 1412.804688 556.886719 1413.542969 558.777344 1413.992188 560.703125 L 1415.210938 566.53125 L 1416.363281 572.398438 C 1416.78125 574.351562 1417.167969 576.304688 1417.261719 578.292969 L 1418.351562 590.148438 C 1418.832031 594.089844 1418.480469 598.0625 1418.511719 602.003906 C 1418.449219 605.945312 1418.386719 609.886719 1418.222656 613.828125 C 1417.292969 621.644531 1416.429688 629.496094 1415.179688 637.21875 C 1413.449219 644.875 1411.714844 652.535156 1409.730469 660.066406 C 1410.335938 652.246094 1411.203125 644.492188 1412.070312 636.800781 C 1412.582031 629.046875 1412.742188 621.324219 1413.253906 613.601562 C 1412.871094 598.222656 1412.550781 582.746094 1408.992188 567.878906 C 1405.914062 552.980469 1400.6875 538.464844 1392.578125 525.550781 L 1389.371094 520.808594 L 1387.769531 518.4375 L 1385.972656 516.226562 L 1382.351562 511.773438 C 1381.097656 510.332031 1379.6875 509.050781 1378.375 507.640625 C 1372.925781 502.222656 1366.863281 497.289062 1360.035156 493.507812 Z M 1345.800781 711.460938 C 1348.460938 708.417969 1351.027344 705.308594 1353.6875 702.359375 C 1358.59375 696.046875 1363.660156 689.929688 1367.632812 683.136719 C 1371.835938 676.503906 1375.394531 669.484375 1377.894531 662.050781 C 1379.015625 658.300781 1380.136719 654.519531 1380.683594 650.613281 C 1381.355469 646.703125 1381.644531 642.730469 1381.324219 638.628906 C 1383.023438 642.410156 1383.632812 646.640625 1383.792969 650.804688 C 1383.921875 652.917969 1383.695312 655 1383.601562 657.085938 C 1383.441406 659.199219 1382.992188 661.25 1382.671875 663.332031 C 1381.003906 671.632812 1377.414062 679.386719 1373.050781 686.5 C 1370.90625 690.089844 1368.339844 693.386719 1365.773438 696.65625 C 1364.523438 698.324219 1363.019531 699.765625 1361.640625 701.304688 C 1360.226562 702.839844 1358.785156 704.316406 1357.34375 705.789062 C 1354.265625 708.542969 1351.125 711.234375 1347.917969 713.800781 C 1344.519531 716.136719 1341.152344 718.507812 1337.660156 720.625 C 1340.289062 717.386719 1343.078125 714.441406 1345.800781 711.460938 Z M 1155.109375 777.660156 C 1156.871094 775.671875 1159.917969 775.511719 1161.90625 777.273438 C 1163.894531 779.039062 1164.054688 782.082031 1162.289062 784.066406 C 1162.035156 784.324219 1156.230469 790.828125 1145.140625 799.769531 C 1144.242188 800.472656 1143.183594 800.824219 1142.125 800.824219 C 1140.714844 800.824219 1139.335938 800.21875 1138.375 799.03125 C 1136.707031 796.980469 1137.027344 793.9375 1139.113281 792.269531 C 1149.5 783.90625 1155.046875 777.722656 1155.109375 777.660156 Z M 1076.5625 807.84375 L 1083.136719 804.511719 L 1086.40625 802.875 L 1089.578125 801.019531 C 1091.695312 799.769531 1093.777344 798.550781 1095.925781 797.398438 L 1101.988281 793.359375 L 1105.03125 791.375 L 1107.949219 789.195312 C 1109.875 787.722656 1111.859375 786.34375 1113.6875 784.773438 L 1119.234375 780.09375 C 1121.0625 778.492188 1122.695312 776.730469 1124.492188 775.097656 C 1127.988281 771.730469 1131.257812 768.144531 1134.398438 764.425781 C 1140.652344 756.960938 1146.355469 748.980469 1151.039062 740.171875 C 1148.824219 749.976562 1144.113281 759.140625 1138.375 767.46875 C 1132.605469 775.800781 1125.613281 783.300781 1117.726562 789.738281 C 1109.679688 795.921875 1101.183594 801.660156 1091.824219 805.503906 C 1087.335938 807.8125 1082.398438 809.09375 1077.683594 810.792969 C 1072.84375 812.167969 1067.90625 813.164062 1063 814.058594 C 1067.523438 811.753906 1072.136719 809.988281 1076.5625 807.84375 Z M 920.785156 836.039062 C 921.488281 833.476562 924.148438 832.003906 926.683594 832.675781 C 950.085938 839.117188 973.394531 842.386719 995.996094 842.386719 C 1048.191406 842.386719 1088.585938 824.859375 1113.269531 810.152344 C 1115.546875 808.804688 1118.496094 809.542969 1119.875 811.816406 C 1121.222656 814.089844 1120.484375 817.039062 1118.207031 818.417969 C 1092.464844 833.734375 1050.371094 851.996094 995.996094 851.996094 C 972.527344 851.996094 948.355469 848.601562 924.117188 841.9375 C 921.554688 841.230469 920.078125 838.605469 920.785156 836.039062 Z M 830.34375 659.070312 C 830.023438 662.339844 829.703125 665.574219 829.09375 668.78125 C 828.292969 665.574219 827.746094 662.402344 827.203125 659.261719 C 826.59375 656.125 825.886719 653.046875 825.375 649.9375 C 823.898438 643.820312 822.519531 637.761719 820.40625 631.996094 C 818.386719 626.195312 815.980469 620.554688 812.710938 615.367188 C 809.375 610.269531 805.5625 605.335938 800.304688 601.492188 C 803.542969 602.132812 806.554688 603.734375 809.3125 605.625 C 810.722656 606.554688 811.941406 607.675781 813.222656 608.765625 C 814.472656 609.886719 815.5625 611.167969 816.71875 612.386719 C 821.109375 617.511719 824.25 623.566406 826.433594 629.847656 C 828.773438 636.128906 829.703125 642.699219 830.3125 649.234375 C 830.4375 652.566406 830.472656 655.835938 830.34375 659.070312 Z M 760.324219 563.074219 C 770.039062 561.503906 780.203125 562.433594 789.789062 565.378906 C 799.375 568.296875 808.542969 573.292969 815.980469 580.183594 C 816.972656 580.984375 817.902344 581.847656 818.707031 582.84375 L 821.238281 585.664062 L 823.769531 588.480469 C 824.574219 589.476562 825.246094 590.53125 825.949219 591.589844 C 827.328125 593.703125 828.773438 595.789062 830.054688 597.933594 C 831.175781 600.175781 832.234375 602.453125 833.292969 604.726562 C 833.804688 605.882812 834.382812 606.96875 834.832031 608.125 L 835.953125 611.679688 L 838.070312 618.792969 C 839.0625 623.632812 839.671875 628.566406 840.21875 633.40625 C 838.292969 628.855469 836.882812 624.210938 835.089844 619.753906 L 832.074219 613.25 L 830.632812 609.984375 C 830.085938 608.925781 829.414062 607.933594 828.835938 606.90625 C 827.617188 604.886719 826.433594 602.835938 825.277344 600.785156 C 823.929688 598.863281 822.457031 597.039062 821.078125 595.148438 C 820.339844 594.25 819.730469 593.222656 818.992188 592.359375 L 816.589844 589.828125 C 814.921875 588.195312 813.542969 586.269531 811.652344 584.894531 C 804.917969 578.484375 796.746094 573.679688 788.089844 570.027344 C 779.398438 566.46875 770.070312 564.160156 760.324219 563.074219 Z M 775.90625 736.871094 C 779.71875 737.480469 783.535156 738.246094 787.480469 738.632812 C 791.421875 739.175781 795.398438 739.433594 799.628906 740.171875 C 795.816406 742.0625 791.679688 743.246094 787.445312 743.628906 C 783.214844 744.175781 778.917969 743.886719 774.71875 743.183594 C 770.519531 742.414062 766.449219 740.9375 762.664062 738.984375 C 758.914062 736.996094 755.386719 734.433594 752.855469 730.941406 C 760.902344 733.472656 768.273438 735.460938 775.90625 736.871094 Z M 705.535156 729.722656 C 711.945312 735.105469 718.773438 739.882812 726.019531 743.824219 C 733.203125 747.890625 740.863281 751.160156 748.847656 753.5 C 756.796875 756.128906 765.101562 757.3125 773.660156 758.785156 C 765.164062 759.972656 756.253906 760.195312 747.660156 758.339844 C 743.269531 757.761719 739.132812 756.191406 734.902344 754.941406 C 732.816406 754.203125 730.863281 753.210938 728.808594 752.347656 C 726.757812 751.511719 724.800781 750.488281 722.910156 749.398438 C 715.214844 745.074219 708.097656 739.722656 702.105469 733.34375 C 696.078125 727.03125 690.882812 719.855469 687.484375 711.875 C 693.125 718.382812 699.121094 724.308594 705.535156 729.722656 Z M 998.242188 496.839844 L 995.257812 496.777344 C 993.269531 496.777344 991.316406 496.648438 989.328125 496.714844 L 983.363281 496.777344 L 977.402344 497.097656 C 973.425781 497.289062 969.417969 497.640625 965.410156 498.027344 C 957.429688 498.828125 949.382812 499.757812 941.238281 500.816406 C 948.644531 497.195312 956.59375 494.824219 964.640625 493.09375 C 972.722656 491.363281 980.960938 490.367188 989.265625 490.304688 C 997.566406 490.367188 1005.96875 491.105469 1014.046875 493.378906 C 1022.09375 495.6875 1029.820312 499.40625 1036.039062 504.820312 C 1028.375 501.679688 1020.777344 499.597656 1012.988281 498.28125 C 1011 498.058594 1009.042969 497.835938 1007.089844 497.546875 C 1005.132812 497.226562 1003.144531 497.257812 1001.191406 497.097656 C 1000.195312 497.035156 999.234375 496.9375 998.242188 496.839844 Z M 1001.414062 510.074219 C 1006.382812 508.503906 1011.738281 508.34375 1016.929688 509.015625 C 1022.15625 509.722656 1027.320312 511.355469 1032 514.046875 C 1034.371094 515.328125 1036.488281 517.027344 1038.570312 518.726562 C 1039.535156 519.65625 1040.429688 520.679688 1041.359375 521.640625 C 1042.324219 522.570312 1043.09375 523.691406 1043.828125 524.8125 C 1047.035156 529.109375 1048.703125 534.332031 1049.441406 539.394531 C 1046.203125 535.261719 1043.507812 531.253906 1039.984375 528.019531 C 1036.648438 524.652344 1032.898438 521.867188 1028.824219 519.589844 C 1024.785156 517.285156 1020.425781 515.394531 1015.839844 513.855469 C 1011.257812 512.382812 1006.480469 511.164062 1001.414062 510.074219 Z M 1016.738281 716.8125 C 1018.597656 715.175781 1020.652344 713.832031 1022.285156 711.972656 C 1025.78125 708.542969 1029.402344 705.277344 1032.417969 701.464844 C 1038.859375 694.253906 1044.183594 686.148438 1048.445312 677.558594 C 1052.839844 669.035156 1056.140625 659.90625 1058.449219 650.484375 C 1060.726562 641.03125 1062.136719 631.324219 1062.648438 621.359375 C 1064.828125 631.128906 1064.796875 641.414062 1063.355469 651.414062 C 1061.976562 661.472656 1058.738281 671.28125 1054.183594 680.410156 L 1052.453125 683.839844 C 1051.84375 684.960938 1051.105469 686.019531 1050.433594 687.109375 C 1049.023438 689.222656 1047.804688 691.496094 1046.234375 693.515625 C 1042.964844 697.457031 1039.949219 701.589844 1036.039062 704.890625 L 1033.28125 707.519531 C 1032.382812 708.417969 1031.421875 709.25 1030.363281 709.953125 L 1024.242188 714.410156 C 1022.253906 715.945312 1019.945312 717.035156 1017.734375 718.253906 C 1015.519531 719.4375 1013.277344 720.558594 1011.066406 721.648438 C 1012.957031 720.015625 1014.847656 718.382812 1016.738281 716.8125 Z M 1073.230469 724.308594 C 1068.773438 730.621094 1063.835938 736.582031 1058.320312 742.027344 C 1052.871094 747.539062 1046.84375 752.507812 1040.464844 756.960938 C 1034.050781 761.382812 1027.191406 765.164062 1020.074219 768.398438 C 1005.773438 774.710938 990.289062 778.238281 974.773438 778.84375 C 959.257812 779.421875 943.769531 777.371094 929.121094 772.949219 C 944.316406 774.777344 959.480469 775.351562 974.421875 773.878906 C 981.859375 772.980469 989.265625 771.925781 996.445312 769.90625 C 1003.660156 768.046875 1010.742188 765.707031 1017.476562 762.566406 C 1031.101562 756.609375 1043.667969 748.308594 1054.921875 738.40625 C 1066.144531 728.441406 1076.179688 717.035156 1084.515625 704.25 C 1081.597656 711.332031 1077.589844 717.964844 1073.230469 724.308594 Z M 1072.8125 692.78125 C 1067.265625 703.449219 1060.019531 713.253906 1051.621094 721.9375 C 1047.515625 726.390625 1042.707031 730.109375 1038.058594 733.984375 C 1032.960938 737.253906 1028.183594 741.003906 1022.636719 743.46875 C 1012.058594 749.335938 1000.261719 752.472656 988.621094 754.429688 C 999.621094 749.878906 1010.457031 745.554688 1020.167969 739.113281 C 1025.203125 736.261719 1029.691406 732.574219 1034.339844 729.179688 C 1038.636719 725.335938 1043.1875 721.777344 1047.035156 717.453125 C 1055.148438 709.28125 1062.265625 700.085938 1068.484375 690.28125 C 1074.640625 680.410156 1080.027344 670.03125 1084.449219 659.007812 C 1082.621094 670.765625 1078.359375 682.140625 1072.8125 692.78125 Z M 973.617188 476.300781 C 986.601562 475.085938 999.78125 475.46875 1012.730469 477.617188 C 1025.652344 479.828125 1038.378906 483.800781 1049.953125 490.046875 C 1061.589844 496.105469 1071.945312 504.53125 1080.21875 514.433594 C 1070.054688 506.453125 1059.347656 499.53125 1047.773438 494.535156 C 1042.003906 492.003906 1036.101562 489.792969 1030.042969 488.125 C 1024.015625 486.300781 1017.894531 484.921875 1011.671875 483.960938 C 999.265625 481.78125 986.601562 481.140625 973.90625 481.300781 C 961.210938 481.558594 948.484375 482.679688 935.757812 484.792969 C 947.777344 480.050781 960.667969 477.519531 973.617188 476.300781 Z M 1042.867188 390.589844 C 1040.335938 386.777344 1038.410156 382.578125 1036.808594 378.285156 C 1035.332031 373.960938 1034.339844 369.472656 1033.632812 364.988281 C 1032.449219 355.953125 1032.703125 346.882812 1034.148438 338.039062 C 1035.621094 329.226562 1038.089844 320.578125 1042.066406 312.628906 C 1040.625 321.347656 1039.628906 329.996094 1039.117188 338.585938 C 1038.699219 347.171875 1038.765625 355.726562 1039.984375 364.089844 C 1041.105469 372.453125 1043.414062 380.59375 1047.195312 388.089844 C 1050.980469 395.585938 1056.429688 402.253906 1063.035156 408.179688 C 1054.953125 404.496094 1047.835938 398.3125 1042.867188 390.589844 Z M 1073.613281 395.234375 C 1077.042969 398.28125 1080.890625 400.90625 1084.707031 403.695312 C 1086.660156 405.007812 1088.648438 406.289062 1090.636719 407.730469 C 1092.65625 409.046875 1094.707031 410.328125 1096.695312 411.929688 C 1094.195312 411.671875 1091.792969 411.128906 1089.324219 410.582031 C 1086.980469 409.816406 1084.578125 409.078125 1082.269531 408.050781 C 1077.75 405.9375 1073.261719 403.503906 1069.445312 400.105469 C 1065.597656 396.804688 1062.199219 392.863281 1059.730469 388.347656 C 1057.328125 383.859375 1055.628906 378.796875 1056.078125 373.734375 C 1058.226562 378.222656 1060.949219 382 1063.867188 385.589844 C 1066.816406 389.117188 1070.152344 392.222656 1073.613281 395.234375 Z M 1042.675781 282.800781 C 1038.605469 289.464844 1035.171875 296.480469 1032.351562 303.753906 C 1029.5 311.027344 1027.609375 318.621094 1025.972656 326.3125 C 1023.214844 341.789062 1022.992188 357.746094 1024.433594 373.734375 C 1020.363281 358.195312 1019.113281 341.789062 1021.003906 325.542969 C 1022.09375 317.46875 1023.953125 309.425781 1026.613281 301.671875 C 1029.402344 293.949219 1032.960938 286.515625 1037.160156 279.464844 C 1045.816406 265.496094 1057.132812 253.320312 1070.085938 243.484375 C 1083.039062 233.679688 1097.433594 225.730469 1112.824219 220.988281 C 1098.460938 228.167969 1085.21875 237.105469 1073.230469 247.328125 C 1061.367188 257.679688 1050.785156 269.46875 1042.675781 282.800781 Z M 1127.730469 235.601562 C 1120.261719 237.78125 1113.078125 240.695312 1106.1875 244.21875 L 1101.054688 246.976562 C 1099.324219 247.871094 1097.753906 249.058594 1096.085938 250.019531 C 1092.65625 251.910156 1089.609375 254.378906 1086.308594 256.523438 C 1084.640625 257.550781 1083.167969 258.894531 1081.5625 260.082031 L 1076.820312 263.667969 C 1073.742188 266.167969 1070.726562 268.796875 1067.394531 271.199219 C 1069.636719 267.835938 1072.074219 264.597656 1074.605469 261.425781 C 1077.394531 258.511719 1080.058594 255.371094 1083.136719 252.679688 C 1089.164062 247.167969 1095.925781 242.425781 1103.238281 238.582031 C 1110.609375 234.929688 1118.464844 232.042969 1126.640625 230.792969 C 1134.75 229.511719 1143.246094 229.417969 1151.003906 231.949219 C 1142.957031 232.042969 1135.230469 233.550781 1127.730469 235.601562 Z M 1284.597656 384.246094 C 1284.246094 386.617188 1282.195312 388.347656 1279.855469 388.347656 C 1279.628906 388.347656 1279.375 388.3125 1279.117188 388.28125 C 1276.488281 387.898438 1274.691406 385.429688 1275.078125 382.804688 C 1276.425781 373.960938 1277.097656 365.277344 1277.097656 357.007812 C 1277.097656 351.335938 1276.777344 345.699219 1276.136719 340.28125 C 1275.816406 337.65625 1277.707031 335.253906 1280.367188 334.964844 C 1283.027344 334.644531 1285.402344 336.535156 1285.6875 339.195312 C 1286.363281 344.960938 1286.714844 350.984375 1286.714844 357.039062 C 1286.714844 365.789062 1286.011719 374.953125 1284.597656 384.246094 Z M 1288.734375 267.417969 C 1295.691406 277.671875 1301.398438 288.824219 1305.34375 300.613281 C 1309.09375 312.4375 1312.042969 324.613281 1312.585938 336.984375 C 1313.324219 343.132812 1312.8125 349.320312 1312.746094 355.472656 C 1312.363281 361.621094 1311.371094 367.710938 1310.441406 373.734375 C 1309.957031 367.582031 1310.117188 361.527344 1309.605469 355.503906 C 1308.933594 349.480469 1308.773438 343.453125 1307.648438 337.527344 L 1306.207031 328.652344 L 1304.21875 319.902344 C 1303.675781 316.957031 1302.777344 314.105469 1301.945312 311.253906 C 1301.046875 308.402344 1300.40625 305.484375 1299.28125 302.699219 L 1296.269531 294.269531 L 1292.710938 286.066406 C 1290.242188 280.621094 1287.515625 275.300781 1284.535156 270.109375 C 1278.539062 259.730469 1271.679688 249.761719 1263.472656 240.695312 C 1273.472656 247.777344 1281.777344 257.230469 1288.734375 267.417969 Z M 1190.566406 236.53125 C 1188.035156 235.761719 1186.59375 233.070312 1187.363281 230.539062 C 1188.132812 228.007812 1190.824219 226.566406 1193.355469 227.332031 C 1195.859375 228.101562 1254.945312 246.65625 1277.898438 307.023438 C 1278.828125 309.492188 1277.609375 312.277344 1275.109375 313.238281 C 1274.53125 313.464844 1273.957031 313.558594 1273.410156 313.558594 C 1271.488281 313.558594 1269.660156 312.375 1268.921875 310.453125 C 1247.632812 254.441406 1191.144531 236.691406 1190.566406 236.53125 Z M 923.925781 378.605469 C 928.414062 378.222656 932.871094 378.796875 937.359375 379.054688 C 939.601562 379.277344 941.785156 379.757812 943.996094 380.113281 C 946.207031 380.433594 948.386719 380.945312 950.566406 381.519531 C 954.925781 382.609375 959.160156 384.117188 963.328125 385.6875 L 969.449219 388.441406 C 971.46875 389.402344 973.394531 390.523438 975.351562 391.582031 C 983.078125 396.003906 990.289062 401.453125 996.058594 408.148438 C 988.558594 403.503906 980.929688 399.496094 973.074219 396.035156 C 965.21875 392.609375 957.171875 389.722656 948.933594 387.707031 C 940.726562 385.527344 932.324219 384.117188 923.796875 383.570312 C 915.269531 382.738281 906.675781 383.25 897.828125 383.507812 C 906.164062 380.6875 914.980469 378.703125 923.925781 378.605469 Z M 882.214844 407.539062 C 884.972656 405.875 888.082031 405.007812 891.066406 403.789062 C 894.140625 402.957031 897.253906 402.058594 900.457031 401.707031 C 906.804688 400.777344 913.28125 400.84375 919.566406 401.898438 C 925.816406 402.957031 931.972656 404.878906 937.359375 408.179688 C 931.140625 407.410156 925.113281 406.960938 919.117188 406.867188 C 913.121094 406.769531 907.222656 407.1875 901.386719 408.050781 C 898.4375 408.339844 895.617188 409.109375 892.699219 409.65625 C 889.878906 410.421875 886.960938 411.128906 884.171875 412.152344 C 878.433594 413.914062 873.109375 416.609375 867.308594 419.140625 C 871.445312 414.492188 876.445312 410.296875 882.214844 407.539062 Z M 880.355469 347.621094 C 885.484375 344.960938 891.097656 343.582031 896.578125 341.757812 C 902.222656 340.570312 907.832031 339.195312 913.601562 338.777344 C 925.078125 337.65625 936.6875 338.070312 947.9375 340.347656 C 959.160156 342.589844 970.125 346.242188 979.933594 351.914062 C 969.097656 348.679688 958.164062 346.5 947.167969 345.25 C 936.171875 344.0625 925.144531 343.9375 914.242188 345.152344 C 908.761719 345.441406 903.40625 346.722656 898.023438 347.652344 C 892.730469 349.0625 887.34375 350.246094 882.214844 352.265625 C 871.667969 355.664062 861.984375 361.078125 852.015625 366.460938 C 860.382812 358.964844 869.746094 352.042969 880.355469 347.621094 Z M 795.269531 453.457031 C 804.597656 433.910156 815.148438 417.054688 826.65625 403.34375 C 828.355469 401.324219 831.402344 401.035156 833.421875 402.734375 C 835.441406 404.429688 835.730469 407.476562 834.03125 409.492188 C 823.066406 422.566406 812.933594 438.75 803.957031 457.558594 C 803.125 459.289062 801.425781 460.28125 799.628906 460.28125 C 798.925781 460.28125 798.21875 460.121094 797.578125 459.800781 C 795.140625 458.742188 794.148438 455.859375 795.269531 453.457031 Z M 785.074219 520.550781 C 791.96875 520.617188 798.859375 521.640625 805.59375 523.371094 C 808.960938 524.269531 812.230469 525.453125 815.46875 526.703125 C 817.070312 527.34375 818.609375 528.210938 820.179688 528.949219 C 821.75 529.683594 823.289062 530.484375 824.734375 531.480469 C 830.792969 534.90625 835.953125 539.746094 840.28125 545 C 834.191406 541.734375 828.578125 538.335938 822.457031 535.933594 C 816.398438 533.402344 810.304688 531.160156 803.957031 529.589844 C 797.675781 527.859375 791.230469 526.609375 784.691406 525.550781 C 778.148438 524.558594 771.546875 523.820312 764.714844 523.210938 C 771.289062 521.128906 778.214844 520.457031 785.074219 520.550781 Z M 582.328125 480.660156 C 586.753906 475.628906 591.851562 471.238281 597.074219 467.074219 C 602.429688 463.035156 608.167969 459.511719 614.097656 456.371094 C 626.058594 450.285156 638.945312 446.152344 652.058594 444.035156 C 665.171875 441.921875 678.570312 441.441406 691.589844 443.652344 C 678.476562 444.132812 665.585938 445.992188 653.050781 448.9375 C 640.546875 451.980469 628.367188 456.210938 617.050781 462.109375 C 605.667969 467.875 595.214844 475.339844 585.917969 484.183594 C 576.652344 493.058594 568.765625 503.347656 561.714844 514.433594 C 566.363281 502.097656 573.351562 490.5625 582.328125 480.660156 Z M 553.601562 642.28125 C 557.898438 644.140625 562.226562 645.710938 566.777344 646.734375 C 571.300781 647.792969 575.949219 648.625 580.691406 649.171875 C 585.4375 649.683594 590.277344 650.066406 595.34375 650.417969 C 590.761719 652.695312 585.695312 653.753906 580.628906 654.167969 C 575.53125 654.554688 570.335938 654.199219 565.273438 652.984375 C 560.207031 651.863281 555.367188 649.554688 551.101562 646.605469 C 546.742188 643.722656 543.34375 639.589844 540.972656 635.136719 C 545.363281 637.796875 549.242188 640.488281 553.601562 642.28125 Z M 608.425781 668.972656 C 599.863281 671.214844 590.984375 672.335938 582.039062 672.207031 C 577.550781 672.046875 573.09375 671.601562 568.671875 670.765625 C 564.277344 669.804688 559.917969 668.554688 555.78125 666.730469 C 547.511719 663.171875 540.167969 657.5 535.007812 650.386719 C 542.0625 655.578125 549.5625 659.550781 557.546875 662.050781 C 565.527344 664.484375 573.832031 665.671875 582.199219 665.800781 C 590.566406 666.023438 599.03125 665.253906 607.464844 664.070312 C 615.894531 662.789062 624.292969 661.089844 632.789062 659.007812 C 625.257812 663.558594 616.953125 666.730469 608.425781 668.972656 Z M 620.734375 481.523438 C 595.089844 495.945312 576.8125 523.789062 566.363281 564.257812 C 565.816406 566.4375 563.863281 567.847656 561.714844 567.847656 C 561.328125 567.847656 560.914062 567.816406 560.496094 567.6875 C 557.929688 567.015625 556.390625 564.417969 557.03125 561.824219 C 568.191406 518.628906 588.066406 488.765625 616.152344 473.035156 C 651.867188 453.039062 687.386719 463.515625 688.894531 463.996094 C 691.429688 464.765625 692.871094 467.457031 692.101562 469.988281 C 691.332031 472.519531 688.636719 473.964844 686.105469 473.195312 C 685.59375 473.066406 652.730469 463.550781 620.734375 481.523438 Z M 661.773438 589.828125 C 662.957031 583.644531 664.914062 577.585938 667.542969 571.820312 C 670.300781 566.117188 673.761719 560.734375 677.769531 555.800781 C 685.914062 546.027344 696.363281 538.464844 707.585938 533.050781 C 718.808594 527.664062 730.894531 524.078125 743.171875 523.148438 C 731.4375 526.671875 720.28125 531.480469 709.925781 537.4375 C 704.796875 540.484375 699.828125 543.75 695.273438 547.53125 C 690.691406 551.25 686.394531 555.320312 682.707031 559.867188 C 678.925781 564.355469 675.71875 569.257812 672.992188 574.449219 C 670.269531 579.636719 668.34375 585.214844 666.644531 590.886719 C 663.695312 602.355469 662.832031 614.46875 663.183594 626.742188 C 660.203125 614.886719 659.558594 602.226562 661.773438 589.828125 Z M 444.40625 578.230469 C 433.472656 605.785156 424.851562 627.542969 392.789062 632.476562 C 362.042969 637.1875 343.515625 626.195312 325.625 615.558594 C 303.4375 602.386719 282.503906 589.925781 237.109375 605.207031 C 202.933594 616.710938 179.976562 643.949219 157.792969 670.285156 C 133.90625 698.613281 110.984375 725.78125 76.648438 730.332031 C 113.515625 739.335938 171.898438 741.195312 216.492188 684.480469 C 232.265625 664.453125 245.828125 654.585938 259.261719 653.464844 C 271.667969 652.40625 282.40625 658.847656 293.566406 668.074219 C 343.769531 698.933594 390.128906 706.398438 427.605469 689.703125 C 468.003906 671.695312 497.65625 625.8125 508.910156 563.777344 C 521.960938 492.003906 570.015625 451.980469 601.851562 432.820312 C 582.425781 437.59375 563.125 445.316406 544.53125 456.917969 C 538.664062 460.21875 533.179688 463.871094 527.988281 467.90625 C 472.425781 507.542969 456.878906 546.730469 444.40625 578.230469 Z M 260.09375 623.890625 C 252.304688 625.972656 244.867188 629.113281 237.910156 633.085938 L 232.746094 636.226562 C 231.015625 637.25 229.507812 638.628906 227.808594 639.75 C 224.378906 641.929688 221.496094 644.84375 218.257812 647.34375 C 216.589844 648.5625 215.308594 650.164062 213.734375 651.542969 L 209.214844 655.769531 C 206.363281 658.75 203.539062 661.828125 200.429688 664.742188 C 202.386719 661.027344 204.566406 657.371094 206.8125 653.785156 C 209.40625 650.453125 211.84375 646.925781 214.761719 643.820312 C 220.566406 637.539062 227.199219 631.929688 234.703125 627.574219 C 242.269531 623.375 250.507812 620.203125 259.132812 619.019531 C 267.660156 617.832031 276.574219 618.21875 284.492188 621.421875 C 276.058594 620.8125 267.917969 621.902344 260.09375 623.890625 Z M 428.25 659.421875 C 422.414062 662.722656 416.128906 665.253906 409.652344 667.210938 C 403.144531 669.066406 396.414062 670.125 389.648438 670.476562 C 376.085938 671.054688 362.492188 668.332031 350.246094 662.980469 C 337.9375 657.726562 326.777344 650.257812 317.191406 641.289062 C 328.382812 648.144531 339.957031 654.136719 352.042969 658.300781 C 355.023438 659.421875 358.132812 660.160156 361.179688 661.089844 C 362.71875 661.507812 364.289062 661.761719 365.828125 662.113281 C 367.367188 662.46875 368.9375 662.789062 370.507812 662.949219 C 376.726562 664.039062 383.074219 664.359375 389.359375 664.039062 C 401.960938 663.621094 414.367188 660.289062 425.941406 654.9375 C 437.480469 649.523438 448.316406 642.28125 457.96875 633.40625 C 450.335938 644.109375 439.917969 652.886719 428.25 659.421875 Z M 459.121094 591.527344 C 457.582031 595.949219 456.332031 600.5625 454.378906 604.886719 C 450.5625 613.601562 445.402344 621.804688 438.890625 628.953125 C 432.222656 635.90625 424.335938 641.800781 415.457031 645.613281 C 406.671875 649.425781 396.988281 651.507812 387.597656 650.417969 C 396.828125 648.851562 405.390625 645.550781 413.246094 641.160156 C 421.066406 636.738281 428.089844 631.128906 434.179688 624.59375 L 438.570312 619.53125 C 440.109375 617.898438 441.199219 615.878906 442.578125 614.117188 C 445.433594 610.625 447.421875 606.523438 449.890625 602.675781 C 451.203125 600.785156 451.941406 598.609375 453.03125 596.621094 L 456.171875 590.46875 C 458 586.238281 459.730469 581.945312 461.78125 577.714844 C 461.109375 582.328125 460.148438 586.910156 459.121094 591.527344 Z M 459.121094 591.527344 " fill-opacity="1" fill-rule="nonzero"/></g></svg>